<svg xmlns="http://www.w3.org/2000/svg" viewBox="-10.4 5 222.7 83" width="222.7" height="83" role="img" aria-label="Mira"><mask id="s"><rect x="-80" y="-40" width="600" height="220" fill="#fff"/><g fill="#000" x="0"><rect y="28" width="600" height="4"/><rect y="41" width="600" height="4"/><rect y="54" width="600" height="4"/><rect y="67" width="600" height="4"/><rect y="80" width="600" height="4"/></g></mask><g transform="skewX(-8)"><path d="M10 80V46Q10 30 17 30H37Q44 30 44 46V80M44 46Q44 30 51 30H71Q78 30 78 46V80M102 80V30M102 13v0M128 80V46Q128 30 135 30H149M205 30V80M205 30A29.24 25 0 1 0 205 80" fill="none" stroke="#F74C00" stroke-width="16" stroke-linecap="round" stroke-linejoin="round" mask="url(#s)"/></g></svg>
